<?xml version="1.0" encoding="UTF-8"?>
<svg id="Layer_2" data-name="Layer 2" xmlns="http://www.w3.org/2000/svg" viewBox="0 0 945.27 178.15">
  <defs>
    <style>
      .cls-1 {
        fill: #203319;
        stroke: #203319;
        stroke-miterlimit: 10;
        stroke-width: 3px;
      }
    </style>
  </defs>
  <g id="Layer_1-2" data-name="Layer 1">
    <g>
      <path class="cls-1" d="m162.47,10.14c-11.63,42.11-23.3,84.22-35,126.47h-22.22c-7.59-29.81-16.95-59.04-23.1-88.42-2.19,9.25-4.38,19.14-6.89,28.95-2.56,9.98-5.47,19.88-8.18,29.82-2.66,9.77-5.27,19.55-7.87,29.18-4.05.91-17.86,1-23.13.12C24.6,94.36,13.05,52.23,1.54,10.08c-.15-.56.13-1.25.25-2.12h23.31c.45,1.12,1.07,2.28,1.41,3.52,6.47,23.57,12.94,47.14,19.29,70.74,1.21,4.48,1.89,9.1,2.83,13.65.36,1.73.76,3.45,1.19,5.38,6.59-31.6,16.26-62.02,24.02-92.66,4.29-1.14,16.27-1.23,20.95-.22.5,1.59,1.1,3.29,1.58,5.03,6.52,23.9,13.08,47.78,19.47,71.72,1.37,5.11,2.05,10.41,2.97,15.17,2.38-9.71,4.76-19.86,7.36-29.96,2.7-10.46,5.59-20.88,8.46-31.3,2.81-10.24,5.7-20.46,8.51-30.53,4.02-1.03,14.38-1.1,19.18-.18.06.57.31,1.25.15,1.82Z"/>
      <path class="cls-1" d="m535.53,49.49c-5.81-20.75-18.48-35.09-39.56-41.17-10.03-2.9-20.24-3.41-30.6-1.74-19.09,3.08-33.18,12.95-42.01,30.22-5.58,10.9-7.62,22.6-7.99,36.46.22,2.08.64,5.87.99,9.67.98,10.44,4.11,20.19,9.72,29.06,7.61,12.02,18.15,20.11,31.98,23.97,11,3.07,22.05,3.01,33.05.82,16.14-3.21,28.8-11.81,37.38-26,6.24-10.33,9.2-21.7,9.98-33.64.61-9.36-.41-18.64-2.94-27.65Zm-26.29,45.01c-1.98,7.27-5.13,14.02-10.98,19.19-4.64,4.1-9.85,6.73-16.1,7.09-2.96.18-5.87.36-8.89.18-11.3-.7-18.87-6.76-24.07-16.19-3.72-6.75-5.82-14.11-6.6-21.8-.41-3.96-.81-7.92-1.06-10.4.31-12.43,2.23-22.95,7.07-32.85,6.47-13.2,20.26-19,34.73-16.21,11.51,2.22,18.79,9.17,23.22,19.73,3.19,7.61,4.6,15.48,5.22,23.69.72,9.4-.08,18.57-2.54,27.57Z"/>
      <path class="cls-1" d="m734.18,47.38c-10.12.48-19.9,1.04-29.7,1.33-2.78.09-5.65-.35-8.36-1.03-4.26-1.06-8.54-1.2-12.87-1.16-10.32.09-18.65,4.37-25.25,12.11-4.78,5.6-6.51,12.39-6.19,19.51.43,9.58,5.12,17.03,12.83,22.62.77.56,1.4,1.3,2.18,2.03-.49.96-.74,1.78-1.25,2.38-2.69,3.16-5.37,6.33-8.18,9.39-3.78,4.12-4.19,7.47-.96,12.05,1.31,1.86,3.07,3.4,5,5.5-1.35.91-2.62,1.69-3.8,2.59-5.66,4.27-9.66,9.68-10.73,16.81-.93,6.23.43,11.85,5.16,16.43,3.87,3.75,8.61,5.65,13.65,6.86,8.31,2,16.68,2.36,25.23,1.2,8.75-1.19,16.86-3.91,24.19-8.66,3.15-2.05,5.98-4.81,8.4-7.71,5.29-6.32,6.86-13.83,6.26-21.98-.55-7.32-4.24-12.71-11.31-14.81-3.94-1.17-8.11-1.8-12.22-2.12-7.28-.56-14.6-.7-21.91-.99-2.92-.12-5.62-.67-7.42-3.16-.74-6.11,1.74-9.22,7.65-9.72.83-.07,1.66-.06,2.49-.12,7.12-.56,13.75-2.6,19.47-6.96,6.96-5.32,11.05-12.21,11.3-21.23.16-5.8-.72-11.22-4.33-16.37,6.18-.84,12,.26,17.91-.71.73-2.52,1.66-4.85,2.05-7.28.38-2.28,2.27-4.57.71-6.8Zm-34.66,89.56c5.49.21,9.19,2.83,9.88,6.09,1.07,5.11-1.08,10.87-5.55,13.41-2.84,1.62-6,3.07-9.19,3.63-5.33.93-10.75,2.17-16.22.6-.63-.18-1.28-.33-1.9-.57-7.65-2.9-9.82-8.45-6.26-15.84,1.47-3.05,3.25-5.78,6.31-7.39,7.68,0,15.32-.22,22.93.07Zm-5.41-49.72c-1.03,2.86-2.87,5.28-5.91,6.36-4.72,1.67-9.08-.25-11.62-5-1.95-3.64-2.28-7.58-2.58-11.68.58-3.07,1.13-6.15,1.77-9.21.17-.79.58-1.55.99-2.27,4.12-7.21,11.85-7.4,16.33-.41.36.56.69,1.15.91,1.77,2.43,6.8,2.56,13.65.11,20.44Z"/>
      <path class="cls-1" d="m328.94,69.5c-2.41-5.73-5.91-10.79-10.63-14.92-8.62-7.54-18.66-8.84-29.48-6.54-5.47,1.16-10.29,3.69-14.99,7.42-.09-1.65-.21-2.93-.21-4.21,0-14.67.05-29.34.02-44.01-.01-1.76.58-3.67-.74-5.24-6.74-.84-18.96-.58-22.39.53.12.93.1,1.94.4,2.85,1.34,4.01,1.54,8.12,1.53,12.31-.05,35.01-.01,70.01-.07,105.02-.01,3.98-.47,7.95-.65,11.93-.02.6.33,1.22.52,1.89,3.63.17,7.08.69,10.69-.43,1.1-2.75,2.19-5.48,3.42-8.57.88.53,1.21.65,1.44.87,11.24,11.16,24.59,12.5,38.82,7.69,11.03-3.73,18.4-11.82,22.82-22.43,6.15-14.73,5.67-29.53-.5-44.16Zm-20.78,39.57c-.76,2.66-2.12,5.26-3.67,7.57-4.48,6.7-9.96,8.33-18.27,6.38-4.4-1.03-6.9-4.39-9.06-8.01-2.26-3.8-3.19-8.12-3.31-12.4-.29-10.12-.1-20.25-.1-30.59,4.5-4.53,9.08-7.76,15.3-8.39,7.02-.72,11.93,2.34,15.4,7.97,1.72,2.78,2.98,5.92,4,9.05,3.09,9.47,2.4,19.01-.29,28.42Z"/>
      <path class="cls-1" d="m864.58,130.04v5.27c-3.52,1.52-14.92,1.84-20.96.74-1.48-1.51-.9-3.44-.91-5.2-.04-15.33-.02-30.65-.03-45.98,0-2.66-.02-5.33-.05-7.99,0-.83-.02-1.67-.12-2.5-1.24-10.56-6.63-12.32-14.69-9.97-5.22,1.51-10.15,4.19-14.41,8.66v62.69c-4.84,1.12-16.94,1.1-21.49.02-.09-1.6-.27-3.36-.27-5.13-.02-18.32.03-36.65-.04-54.97,0-4.15-.36-8.3-.68-12.43-.35-4.53-1.7-8.79-4.2-13.27,7.17-2.04,14.32-1.81,21.38-2.97,2.85,2.77,2.22,6.86,4.05,10.36,3.14-2.01,6.18-4.22,9.45-6,8.01-4.35,16.47-6.02,25.51-3.81,8.65,2.11,13.77,7.48,15.63,16.2,1.22,5.73,1.88,11.46,1.85,17.31-.06,16.32-.02,32.65-.02,48.97Z"/>
      <path class="cls-1" d="m208.11,95.6c4.32,0,8.65.1,12.98-.03,4.27-.13,8.61.62,13.26-.66,2.09-8.57,2.13-17.07-.74-25.46-3.61-10.56-10.59-17.9-21.37-21.4-4.67-1.51-9.49-1.59-14.31-1.38-15.82.67-27.03,8.72-33.94,22.51-5.59,11.14-6.89,23.12-4.55,35.46,3.3,17.39,15.14,29.47,31.56,32.71,11.53,2.27,22.82.77,33.75-3.3,3.19-1.18,6.39-2.66,8.8-5.36-1.86-4.04-3.58-7.78-5.38-11.69-1.49.66-2.67,1.26-3.91,1.7-4.37,1.57-8.65,3.61-13.16,4.49-8.94,1.76-17.29.44-23.65-6.96-5.05-5.87-6.73-12.66-5.62-20.63h26.28Zm-9.33-34.57c7.05-.34,13.42,5.01,14.58,12.44.37,2.41.77,4.93-.49,7.74-10.18.58-20.41.14-30.59.28-1.03-9.87,7.34-20.01,16.5-20.46Z"/>
      <path class="cls-1" d="m407.31,129.73c-1.9,13.97-9.78,23.74-21.98,30.22-10.71,5.7-22.23,8.79-34.27,9.93-5.29.5-10.6.72-15.91,1-.95.05-1.92-.21-3.3-.37-.17-3.07-.34-6.01-.5-8.95,1.87-1.38,3.84-1.66,5.8-1.75,7.85-.37,15.51-1.83,23.02-4.04,4.96-1.45,9.71-3.31,13.86-6.62,5.82-4.65,8.91-10.63,9.47-17.96.18-2.49.2-5,.03-7.49-.31-4.5-2.55-7.79-6.65-9.81-5.02-2.46-10.24-2.61-15.58-1.5-1.29.27-2.55.72-4.35,1.25-1.92-3.56-3.64-6.74-5.49-10.16,3.21-1.85,6.08-3.46,8.91-5.14,5.46-3.25,10.44-7.12,14.79-11.78,3-3.2,5.39-6.79,6.54-11.06.43-1.58.71-3.27.68-4.9-.08-5.12-3.17-8.02-8.34-7.67-4.01.28-7.9,1.35-11.34,3.5-3.49,2.18-6.83,4.61-10.55,7.14-3.59-4.12-6.88-8.6-10.12-13.58,1.06-1.07,1.84-2.15,2.87-2.85,12.49-8.41,26.32-11.87,41.24-10.3,3.69.39,7.38,1.99,10.79,3.63,4.69,2.25,7.06,6.47,7.65,11.56.82,7.01-.71,13.51-4.44,19.56-4.11,6.67-9.73,11.76-16.02,16.23-1.33.95-2.67,1.89-4.55,3.22,3.45.71,6.3,1.14,9.07,1.91,5.74,1.6,10.73,4.39,14.38,9.31,3.9,5.25,5.15,11.16,4.29,17.47Z"/>
      <path class="cls-1" d="m943.73,108.9c0,12.56-6.72,22.18-18.49,26.91-10.74,4.31-21.49,3.64-32.28.5-4.14-1.2-8.28-2.49-12.27-5.28,1.9-4.93,4.98-9.25,7.44-14.45,1.98,1.02,3.68,1.97,5.45,2.77,2.71,1.24,5.43,2.5,8.23,3.52,4.47,1.63,8.93.86,13.13-.91,6.44-2.71,8.05-11.28,3.02-16.22-1.73-1.7-3.98-3-6.2-4.05-4.67-2.19-9.53-3.97-14.21-6.14-6.76-3.14-12.34-7.63-13.66-15.43-1.81-10.65.46-20.27,10.56-27.06,5.27-3.54,11.1-5.39,17.23-6.18,9.24-1.19,18.22.55,26.99,3.47,1.24.42,2.39,1.11,4.26,2-2.53,5.02-4.82,9.58-7.28,14.45-1.17-.51-2.08-.8-2.88-1.27-4.22-2.54-8.89-3.81-13.7-4.34-3.74-.41-7.31.82-10.24,3.17-3.42,2.76-3.13,9.61.55,12.43,2.08,1.6,4.52,2.8,6.92,3.91,5.72,2.66,11.92,4.25,17.21,7.89,3.94,2.72,7.14,6.04,8.86,10.53.7,1.83.99,3.84,1.28,5.79.2,1.3.08,2.66.08,3.99Z"/>
      <path class="cls-1" d="m603.33,47.46c-.68,7.26-1.97,13.82-3.34,20.67-5.94.75-11.6,2.07-16.16,6.01-3.52,3.05-6.8,6.37-9.05,10.7-.24,17,.15,34.1-.24,51.61-7.05.28-13.64.12-20.06.13-1.56-1.92-1-3.82-1.01-5.58-.04-18.98-.04-37.96-.02-56.94.01-7.89-.89-15.59-4.47-22.77-.27-.54-.23-1.23-.43-2.38,7.35-.07,14.31-1.86,21.53-1.11,3.33,4.95,3.27,10.81,4.93,16.56,7.28-9.11,15.34-16.61,28.32-16.9Z"/>
      <path class="cls-1" d="m635.59,133.25c0,.81-.2,1.62-.3,2.36-3.57,1.22-15,1.42-20.75.33-.06-1.68-.17-3.46-.17-5.24-.01-21.16-.05-42.32.02-63.49.02-4.85-.28-9.62-1.52-14.33-.28-1.07-.17-2.25-.27-3.9h22.34c.22.95.63,1.87.63,2.79.04,27.16.04,54.32.02,81.48Z"/>
      <path class="cls-1" d="m767.62,133.3c0,.81-.21,1.61-.31,2.34-3.71,1.2-15.22,1.38-20.75.28-.05-1.68-.15-3.47-.15-5.25-.01-21.34-.06-42.67.03-64,.01-4.85-.3-9.62-1.5-14.33-.23-.91-.16-1.9-.24-3.01.83-.2,1.45-.48,2.08-.49,6.65-.03,13.3-.02,20.19-.02.25,1.14.64,2.06.64,2.99.03,27.16.03,54.33.01,81.49Z"/>
      <path class="cls-1" d="m638.57,17.37c-.06,7.45-6.21,13.51-13.74,13.52-7.24.01-13.34-6.04-13.38-13.29-.05-7.4,6.1-13.77,13.41-13.9,7.08-.12,13.77,6.55,13.71,13.67Z"/>
      <path class="cls-1" d="m770.61,17.05c.13,7.42-5.99,13.74-13.4,13.83-7.25.09-13.54-5.84-13.74-12.95-.2-7.45,6.28-14.2,13.63-14.22,6.9-.02,13.38,6.38,13.51,13.34Z"/>
    </g>
  </g>
</svg>